<?xml version="1.0" encoding="UTF-8"?>
<svg version="1.1" xmlns="http://www.w3.org/2000/svg" width="512" height="512">
<path d="M0 0 C0.82832336 0.00087616 1.65664673 0.00175232 2.5100708 0.00265503 C68.53183987 0.23161669 123.43674657 32.89620691 168.96777344 78.46972656 C174.25551758 83.8338464 179.05275458 89.43751533 183.6875 95.375 C184.53699219 96.38433594 185.38648438 97.39367187 186.26171875 98.43359375 C201.59143725 116.72509933 214.34947082 137.42716184 225.6875 158.375 C226.30625 159.50446045 226.925 160.6339209 227.5625 161.79760742 C232.25817264 170.42550215 236.51864873 179.17890056 240.4375 188.1875 C240.73297729 188.8651944 241.02845459 189.54288879 241.33288574 190.24111938 C265.04547265 244.89776331 277.0566611 302.25119154 282.6875 361.375 C313.3775 361.705 344.0675 362.035 375.6875 362.375 C371.74189059 366.97821097 367.83192635 371.38051191 363.5640564 375.65234375 C362.97780412 376.24297828 362.39155185 376.8336128 361.78753436 377.44214535 C359.84165593 379.40127467 357.89230548 381.3569095 355.94287109 383.3125 C354.53945195 384.72382999 353.13621265 386.13533883 351.73313904 387.54701233 C347.14614889 392.16007558 342.55383231 396.76781667 337.9609375 401.375 C336.37793891 402.96336145 334.79494766 404.55173022 333.21196365 406.1401062 C326.63260614 412.74105716 320.05182334 419.34058167 313.46730614 425.93638611 C304.03275414 435.38722073 294.60682423 444.84647322 285.19256723 454.31752586 C278.56760955 460.98108996 271.93318285 467.63513014 265.29154456 474.28206825 C261.32481215 478.25246244 257.36241439 482.22697271 253.41004562 486.21166992 C249.69936343 489.95227419 245.97716015 493.6810046 242.24557686 497.40075493 C240.87541005 498.77069977 239.509549 500.14496606 238.1482563 501.52372932 C236.29576832 503.3986997 234.42869596 505.25778298 232.55697632 507.11352539 C232.0163148 507.668069 231.47565327 508.22261261 230.91860807 508.79396057 C229.39621544 510.28431702 229.39621544 510.28431702 226.6875 512.375 C222.13566293 511.87884549 219.65532089 508.75411462 216.58782959 505.64282227 C215.67615442 504.73605035 215.67615442 504.73605035 214.74606156 503.81095982 C212.70599031 501.77818674 210.67684251 499.7348472 208.64746094 497.69140625 C207.18939829 496.23413421 205.73068278 494.77751513 204.2713623 493.32150269 C200.30619732 489.36147942 196.35044674 485.3921712 192.39641857 481.42103195 C188.26415342 477.27375702 184.12381007 473.13456214 179.98443604 468.99438477 C173.03570028 462.04195457 166.092631 455.08390722 159.15332031 448.12207031 C150.23293285 439.1727857 141.30328052 430.23280566 132.37066269 421.29573059 C124.70584874 413.62694334 117.0453033 405.95389628 109.38544178 398.28016281 C106.91546062 395.80607495 104.44488709 393.33257976 101.97423553 390.85916138 C98.10093042 386.9809781 94.23028747 383.10015698 90.36174011 379.21722794 C88.93710517 377.78805448 87.51161273 376.35973525 86.08522797 374.9323082 C84.14756236 372.99290817 82.21298682 371.05047983 80.27923584 369.10717773 C79.70610397 368.53491235 79.1329721 367.96264696 78.5424726 367.3730402 C74.6875 363.48920732 74.6875 363.48920732 74.6875 362.375 C105.7075 362.375 136.7275 362.375 168.6875 362.375 C168.0275 358.085 167.3675 353.795 166.6875 349.375 C166.34953739 346.40561753 166.01157779 343.43615451 165.70019531 340.46386719 C155.99712889 248.29930533 122.07211414 153.96071789 58.91796875 84.828125 C57.46483687 83.22993442 56.02887557 81.61590744 54.61328125 79.984375 C25.96823591 47.15641177 -14.50782807 21.33726305 -56.3125 9.375 C-55.3125 7.375 -55.3125 7.375 -53.41748047 6.72070312 C-52.18602295 6.44129883 -52.18602295 6.44129883 -50.9296875 6.15625 C-50.00800781 5.94613281 -49.08632813 5.73601563 -48.13671875 5.51953125 C-47.16347656 5.30683594 -46.19023438 5.09414062 -45.1875 4.875 C-44.26839844 4.66230469 -43.34929688 4.44960937 -42.40234375 4.23046875 C-28.25615476 1.06746627 -14.4399191 -0.0375841 0 0 Z " fill="#000000" transform="translate(96.3125,-0.375)"/>
</svg>
